<svg xmlns="http://www.w3.org/2000/svg" version="1.1" xmlns:xlink="http://www.w3.org/1999/xlink" viewBox="0 0 200 200" width="200" height="200"><metadata><rdf:RDF xmlns:rdf="http://www.w3.org/1999/02/22-rdf-syntax-ns#" xmlns:dc="http://purl.org/dc/elements/1.1/"><rdf:Description><dc:creator>RealFaviconGenerator</dc:creator><dc:source>https://realfavicongenerator.net</dc:source></rdf:Description></rdf:RDF></metadata><rect width="200" height="200" fill="url('#gradient')"></rect><defs><linearGradient id="gradient" gradientTransform="rotate(45 0.5 0.5)"><stop offset="0%" stop-color="#29d651"></stop><stop offset="100%" stop-color="#00807c"></stop></linearGradient></defs><g><g fill="#ffffff" transform="matrix(4.452173913043478,0,0,4.452173913043478,7.0126753667126565,132.94842938962188)" stroke="#000000" stroke-width="0"><path d="M9.17-4.81L12.58-4.81Q12.51-3.33 11.78-2.19Q11.04-1.05 9.72-0.43Q8.40 0.20 6.70 0.20L6.70 0.20Q3.90 0.20 2.29-1.63Q0.67-3.46 0.67-6.79L0.67-6.79L0.67-7.49Q0.67-9.58 1.40-11.15Q2.13-12.71 3.50-13.57Q4.86-14.42 6.66-14.42L6.66-14.42Q9.25-14.42 10.82-13.06Q12.39-11.70 12.61-9.31L12.61-9.31L9.19-9.31Q9.15-10.61 8.54-11.17Q7.92-11.74 6.66-11.74L6.66-11.74Q5.38-11.74 4.79-10.78Q4.19-9.82 4.16-7.72L4.16-7.72L4.16-6.72Q4.16-4.44 4.73-3.47Q5.30-2.49 6.70-2.49L6.70-2.49Q7.88-2.49 8.51-3.05Q9.13-3.60 9.17-4.81L9.17-4.81ZM25.08-14.22L25.08-11.57L20.81-11.57L20.81 0L17.38 0L17.38-11.57L13.19-11.57L13.19-14.22L25.08-14.22ZM36.18-5.36L36.18-5.20Q36.18-2.60 35.11-1.20Q34.03 0.20 32.08 0.20L32.08 0.20Q30.47 0.20 29.48-1.08L29.48-1.08L29.35 0L26.40 0L26.40-15L29.69-15L29.69-9.72Q30.61-10.76 32.06-10.76L32.06-10.76Q34.03-10.76 35.11-9.35Q36.18-7.93 36.18-5.36L36.18-5.36ZM32.88-5.40L32.88-5.40Q32.88-6.92 32.48-7.57Q32.07-8.22 31.23-8.22L31.23-8.22Q30.12-8.22 29.69-7.37L29.69-7.37L29.69-3.17Q30.11-2.33 31.25-2.33L31.25-2.33Q32.41-2.33 32.72-3.47L32.72-3.47Q32.88-4.02 32.88-5.40ZM41.10-15L41.10 0L37.80 0L37.80-15L41.10-15Z"></path></g></g></svg>